<svg version="1.1" id="Layer_3" xmlns="http://www.w3.org/2000/svg" x="0" y="0" viewBox="0 0 340.4 26.5" xml:space="preserve"><style>.st0{fill:#3cbcda}.st1{fill:#444e5c}</style><g id="provendb-logo_1_" transform="translate(77.374 51.531)"><path id="Path_12688_1_" class="st0" d="M-21.4-47.1l-5.1 11.8-4.1-5.7-3.9 2.7 6.6 8.8h4.4l7.7-17.6h-5.6z"/><path id="Path_12689_1_" class="st1" d="M18.3-42.2c0-.1-.1-.2-.2-.3s-.2-.3-.2-.4c-.1-.1-.1-.2-.2-.3-.2-.3-.5-.7-.8-1l-.3-.3-.6-.6c-.3-.3-.7-.5-1-.7-.2-.2-.5-.3-.8-.4-.3-.1-.5-.2-.8-.3-.1-.1-.3-.1-.4-.1-.3-.1-.6-.2-.8-.2l-.5-.2c-.4-.1-.9-.1-1.3-.1h-.6c-.7 0-1.4.2-2 .3l-.3.1c-.3.1-.5.2-.8.3l-.3.1c-.1 0-.2.1-.3.1-.1 0-.2.1-.3.1-2.7 1.6-4.3 4.4-4.4 7.5v8.9h4.4v-9.7c.1-.6.4-1.2.8-1.7l.3-.3c.8-.9 2-1.4 3.2-1.4h1c.1 0 .2.1.3.1l.3.2c.1 0 .1 0 .2.1l.2.1c.4.2.8.4 1.2.7l.1.1.3.3c.1.1.2.2.2.3l.1.1s.1.1.1.2.1.1.1.2c.2.3.3.6.4 1s.2.9.2 1.3v8.8h4.4v-8.8c-.1-1.6-.3-2.9-.9-4.1z"/><path id="Path_12690_1_" class="st1" d="M-58.7-38.4v8.8h4.4v-8.8c0-2.4 1.9-4.4 4.4-4.4.4 0 .7 0 1.1.1v-4.4c-.3 0-.7-.1-1.1-.1-4.9.1-8.8 4-8.8 8.8z"/><path id="Path_12691_1_" class="st1" d="M35.5-48.9c0-1.5-1.2-2.6-2.6-2.6H29v8.8h3.9c1.5 0 2.6-1.2 2.6-2.6 0-.6-.2-1.3-.7-1.7.5-.6.8-1.2.7-1.9zm-4.8-.9h2.2c.5 0 .9.4.9.9s-.4.9-.9.9h-2.2v-1.8zm2.2 5.3h-2.2v-1.7h2.2c.5 0 .9.5.8 1 0 .3-.3.7-.8.7z"/><path id="Path_12692_1_" class="st1" d="M23.5-51.5h-3.3v8.8h3.3c2.4 0 4.4-2 4.4-4.4 0-2.4-1.9-4.4-4.4-4.4zm0 7H22v-5.3h1.5c1.5 0 2.6 1.2 2.6 2.6.1 1.5-1.1 2.7-2.6 2.7z"/><path id="Path_12693_1_" class="st1" d="M-67.5-51.5h-9.9v21.9h4.4v-6.6h5.5c4.2 0 7.7-3.4 7.7-7.7 0-4.2-3.4-7.6-7.7-7.6zm0 11H-73v-6.6h5.5c1.8-.1 3.3 1.4 3.4 3.2s-1.4 3.3-3.2 3.4h-.2z"/><path id="Path_12694_1_" class="st1" d="M-8.3-47.1c-4.8 0-8.8 3.9-8.8 8.8 0 4.8 3.9 8.8 8.8 8.8 3.6 0 6.8-2.2 8.1-5.5h-5.1c-1.8 1.6-4.6 1.4-6.2-.4-.3-.4-.6-.8-.8-1.3H.4c.1-.5.2-1.1.2-1.7-.1-4.8-4-8.7-8.9-8.7zm-4 7.1c.9-2.2 3.4-3.3 5.6-2.4h.1c1.1.4 2 1.3 2.4 2.4h-8.1z"/><path id="Path_12695_1_" class="st1" d="M-39-42.7c1.9 0 3.7 1.3 4.2 3.1l3.7-2.6c-2.1-4.4-7.3-6.2-11.7-4.1-4.4 2.1-6.2 7.3-4.1 11.7s7.3 6.2 11.7 4.1c1.2-.6 2.3-1.5 3.1-2.5l-2.9-3.8c-.8 2.3-3.4 3.4-5.6 2.6s-3.4-3.4-2.6-5.6c.7-1.8 2.4-2.9 4.2-2.9z"/><g id="Group_11153_1_" transform="translate(57.057 .046)"><path id="Path_12696_1_" class="st0" d="M-91.7-49.3H-74c1.1 0 2 .9 2 2v1.1c.7-.6 1.4-1.1 2.2-1.4v-.2c0-2.1-1.7-3.7-3.7-3.7h-18.6c-1.7 0-3.2 1.2-3.6 2.9.8 0 1.5.2 2.3.4.3-.7.9-1.1 1.7-1.1z"/><path id="Path_12697_1_" class="st0" d="M-72-30.6v1.2c0 1.1-.9 2-2 2h-17.7c-.8 0-1.5-.4-1.8-1.1-.7.2-1.5.3-2.3.3.4 1.7 1.9 2.9 3.7 2.9h18.6c2.1 0 3.7-1.7 3.7-3.7v-.3c-.8-.2-1.5-.7-2.2-1.3z"/></g></g><path d="M124.4 0h1.4v26.5h-1.4zm12.3 12.6c0-1 .2-2.1.6-3.1.4-1 .9-1.9 1.7-2.7.7-.8 1.6-1.5 2.7-2 1-.5 2.2-.7 3.6-.7 1.6 0 2.9.3 4.1 1 1.1.7 2 1.6 2.6 2.7l-2.6 1.8c-.2-.5-.5-.9-.8-1.2s-.7-.6-1-.8c-.4-.2-.8-.3-1.2-.4s-.8-.1-1.2-.1c-.8 0-1.6.2-2.2.5-.6.3-1.1.8-1.5 1.3s-.7 1.1-.9 1.8-.3 1.4-.3 2c0 .8.1 1.5.4 2.2.2.7.6 1.3 1 1.8s1 1 1.6 1.3 1.3.5 2 .5c.4 0 .8 0 1.2-.1s.8-.2 1.2-.5c.4-.2.7-.5 1-.8s.6-.7.8-1.2l2.7 1.6c-.3.6-.7 1.2-1.2 1.7s-1.1.9-1.7 1.2-1.3.6-2 .8c-.7.2-1.4.3-2.1.3-1.2 0-2.3-.3-3.4-.8-1-.5-1.9-1.2-2.6-2-.7-.8-1.3-1.8-1.7-2.8s-.8-2.2-.8-3.3zm23.1 8.9c-1 0-2-.2-2.8-.5-.8-.4-1.5-.8-2.1-1.4s-1-1.3-1.3-2.1c-.3-.8-.5-1.6-.5-2.5s.2-1.7.5-2.5.7-1.5 1.3-2.1 1.3-1.1 2.1-1.4c.8-.4 1.7-.5 2.8-.5s1.9.2 2.8.5c.8.4 1.5.8 2.1 1.4s1 1.3 1.3 2.1.5 1.6.5 2.5-.2 1.7-.5 2.5-.7 1.5-1.3 2.1-1.3 1.1-2.1 1.4c-.9.3-1.8.5-2.8.5zm-3.3-6.5c0 .6.1 1.1.3 1.5.2.5.4.9.7 1.2.3.3.6.6 1 .8.4.2.8.3 1.3.3s.9-.1 1.3-.3c.4-.2.8-.4 1-.8.3-.3.5-.7.7-1.2.2-.5.3-1 .3-1.5s-.1-1.1-.3-1.5c-.2-.5-.4-.9-.7-1.2s-.6-.6-1-.8-.8-.3-1.3-.3-.9.1-1.3.3c-.4.2-.8.5-1 .8-.3.3-.5.7-.7 1.2-.3.4-.3.9-.3 1.5zm31.7 6.3H185v-7.1c0-1-.2-1.8-.5-2.2-.3-.5-.8-.7-1.4-.7-.6 0-1.2.2-1.8.7s-1 1.1-1.2 1.9v7.4h-3.2v-7.1c0-1-.2-1.8-.5-2.2-.3-.5-.8-.7-1.4-.7-.6 0-1.2.2-1.8.7s-1 1.1-1.2 1.9v7.4h-3.2V8.6h2.9v2.3c.5-.8 1.1-1.4 1.9-1.9.8-.4 1.7-.7 2.8-.7s1.9.3 2.5.8.9 1.1 1.1 1.9c.5-.9 1.2-1.5 2-2s1.7-.7 2.7-.7c.8 0 1.4.1 1.9.4.5.3.9.7 1.2 1.1.3.5.5 1 .6 1.6s.2 1.2.2 1.8v8.1h-.4zm10.3.2c-1 0-1.9-.2-2.6-.7-.7-.4-1.3-1-1.7-1.8v7.4H191V8.6h2.8v2.2c.5-.7 1.1-1.3 1.8-1.7s1.6-.6 2.6-.6c.9 0 1.6.2 2.4.5.7.3 1.3.8 1.9 1.4s.9 1.3 1.2 2.1.4 1.6.4 2.5-.1 1.8-.4 2.6c-.3.8-.7 1.5-1.1 2.1-.5.6-1.1 1.1-1.7 1.4-.8.3-1.5.4-2.4.4zm-1-2.7c.5 0 .9-.1 1.3-.3.4-.2.8-.5 1-.8.3-.4.5-.8.7-1.2.2-.5.2-.9.2-1.4s-.1-1-.3-1.5-.4-.9-.7-1.2-.7-.6-1.1-.8c-.4-.2-.9-.3-1.4-.3-.3 0-.6.1-.9.2-.3.1-.6.3-.9.4-.3.2-.5.4-.7.7s-.4.5-.5.8v3c.3.7.7 1.3 1.3 1.8.6.3 1.3.6 2 .6zm8.7-15.1h3.2v13.5c0 .5.1.8.3 1.1.2.3.5.4 1 .4.2 0 .4 0 .6-.1.2-.1.5-.1.7-.2l.4 2.5c-.4.2-.9.4-1.5.5s-1.1.2-1.6.2c-1 0-1.8-.3-2.4-.8-.6-.5-.8-1.3-.8-2.3V3.7h.1zm7.7 3.2V3.7h3.2v3.2h-3.2zm0 14.4V8.6h3.2v12.6l-3.2.1zm9.6.2c-.6 0-1.2-.1-1.7-.3-.5-.2-1-.5-1.4-.8-.4-.4-.7-.8-.9-1.3s-.3-1-.3-1.6.1-1.1.4-1.7c.3-.5.6-.9 1.1-1.3.5-.4 1-.6 1.7-.8s1.4-.3 2.2-.3c.6 0 1.1 0 1.7.1.5.1 1 .2 1.4.4v-.7c0-.8-.2-1.5-.7-1.9-.5-.5-1.2-.7-2.1-.7-.7 0-1.3.1-2 .4-.6.2-1.3.6-2 1.1l-1-2c1.6-1.1 3.4-1.6 5.3-1.6 1.8 0 3.2.4 4.2 1.3s1.5 2.2 1.5 3.9v3.9c0 .3.1.6.2.7.1.1.3.2.6.2v2.7c-.5.1-1 .2-1.4.2-.6 0-1.1-.1-1.4-.4-.3-.3-.5-.6-.6-1.1l-.1-.7c-.6.7-1.2 1.3-2 1.7-.9.4-1.8.6-2.7.6zm.9-2.3c.5 0 1.1-.1 1.6-.3.5-.2.9-.4 1.1-.8.4-.3.5-.6.5-.9v-1.4c-.4-.1-.8-.3-1.3-.4-.4-.1-.9-.1-1.3-.1-.8 0-1.5.2-2.1.6-.5.4-.8.9-.8 1.4s.2 1 .6 1.4c.6.3 1.1.5 1.7.5zm21.2 2.1h-3.2v-7.1c0-1-.2-1.8-.5-2.2s-.8-.7-1.5-.7c-.3 0-.6.1-1 .2-.3.1-.7.3-1 .5s-.6.5-.8.8-.4.7-.5 1.1v7.4h-3.2V8.6h2.9v2.3c.5-.8 1.1-1.4 2-1.9.9-.4 1.9-.7 3-.7.8 0 1.4.1 1.9.4.5.3.9.7 1.2 1.1.3.5.5 1 .6 1.6s.2 1.2.2 1.8l-.1 8.1zm2.1-6.3c0-.9.2-1.7.5-2.5s.7-1.5 1.3-2.1 1.3-1.1 2.1-1.4c.8-.4 1.7-.5 2.8-.5 1.4 0 2.6.3 3.5.9 1 .6 1.7 1.4 2.2 2.3l-3.2 1c-.3-.5-.6-.8-1.1-1.1-.4-.2-.9-.4-1.5-.4-.5 0-.9.1-1.3.3-.4.2-.8.4-1 .8-.3.3-.5.7-.7 1.2s-.3 1-.3 1.5c0 .6.1 1.1.3 1.5s.4.9.7 1.2c.3.3.6.6 1 .8.4.2.8.3 1.3.3.6 0 1.1-.1 1.6-.4s.8-.6 1-1.1l3.2 1c-.4 1-1.1 1.8-2.1 2.4s-2.2.9-3.6.9c-1 0-2-.2-2.8-.5-.8-.4-1.5-.8-2.1-1.4s-1-1.3-1.3-2.1c-.4-.9-.5-1.8-.5-2.6zm20.1 6.5c-1 0-1.9-.2-2.7-.5-.8-.3-1.5-.8-2.1-1.4s-1-1.3-1.3-2.1c-.3-.8-.5-1.6-.5-2.5s.2-1.7.5-2.5.7-1.5 1.3-2.1 1.3-1.1 2.1-1.4c.8-.4 1.8-.5 2.8-.5s1.9.2 2.8.5c.8.4 1.5.8 2.1 1.4.6.6 1 1.3 1.3 2.1s.4 1.6.4 2.5v.6c0 .2 0 .4-.1.5h-9.8c0 .5.2.9.4 1.3s.4.7.7 1c.3.3.7.5 1 .6.4.1.8.2 1.2.2.6 0 1.2-.2 1.8-.5.6-.3 1-.7 1.2-1.2l2.8.8c-.5 1-1.2 1.8-2.2 2.4-1.1.5-2.3.8-3.7.8zm3.3-7.6c-.1-.9-.4-1.7-1-2.3s-1.4-.9-2.3-.9c-.4 0-.8.1-1.2.2-.4.2-.7.4-1 .6-.3.3-.5.6-.7 1s-.3.8-.3 1.3l6.5.1zm12.3-9.7l4.6 12.9 4.6-12.9h3.5l-6.7 17.1h-2.8l-6.7-17.1h3.5zm16.5 17.3c-.6 0-1.2-.1-1.7-.3-.5-.2-1-.5-1.4-.8-.4-.4-.7-.8-.9-1.3-.2-.5-.3-1-.3-1.6s.1-1.1.4-1.7c.3-.5.6-.9 1.1-1.3.5-.4 1-.6 1.7-.8s1.4-.3 2.2-.3c.6 0 1.1 0 1.7.1.5.1 1 .2 1.4.4v-.7c0-.8-.2-1.5-.7-1.9-.5-.5-1.2-.7-2.1-.7-.7 0-1.3.1-2 .4-.6.2-1.3.6-2 1.1l-1-2c1.6-1.1 3.4-1.6 5.3-1.6 1.8 0 3.2.4 4.2 1.3s1.5 2.2 1.5 3.9v3.9c0 .3.1.6.2.7s.3.2.6.2v2.7c-.5.1-1 .2-1.4.2-.6 0-1.1-.1-1.4-.4s-.5-.6-.6-1.1l-.1-.7c-.6.7-1.2 1.3-2 1.7-.9.4-1.8.6-2.7.6zm.9-2.3c.5 0 1.1-.1 1.6-.3.5-.2.9-.4 1.1-.8.4-.3.5-.6.5-.9v-1.4c-.4-.1-.8-.3-1.3-.4-.4-.1-.9-.1-1.3-.1-.8 0-1.5.2-2.1.6-.5.4-.8.9-.8 1.4s.2 1 .6 1.4c.6.3 1.1.5 1.7.5zm13.3 2.3c-1.3 0-2.3-.4-3-1.3-.7-.8-1-2.1-1-3.7V8.6h3.2v7.2c0 1.9.7 2.9 2.1 2.9.6 0 1.2-.2 1.8-.6s1.1-1 1.4-1.7V8.6h3.2v8.9c0 .3.1.6.2.7s.3.2.6.2v2.7c-.3.1-.6.1-.8.1h-.6c-.6 0-1-.1-1.4-.4s-.6-.6-.6-1.1l-.1-1c-.6.9-1.3 1.5-2.2 2-.7.6-1.7.8-2.8.8zm11-17.8h3.2v13.5c0 .5.1.8.3 1.1.2.3.5.4 1 .4.2 0 .4 0 .6-.1s.5-.1.7-.2l.4 2.5c-.4.2-.9.4-1.5.5s-1.1.2-1.6.2c-1 0-1.8-.3-2.4-.8s-.8-1.3-.8-2.3l.1-14.8zm15.3 16.9c-.4.2-1 .4-1.6.6s-1.3.3-2 .3c-.4 0-.9-.1-1.3-.2s-.7-.3-1-.5-.5-.6-.7-1-.3-.9-.3-1.4v-7.3h-1.7V8.6h1.7v-4h3.2v4.1h2.7v2.5h-2.7v6.2c0 .5.1.8.3 1s.5.3.9.3c.3 0 .7-.1 1-.2s.6-.2.8-.3l.7 2.4z" fill="#8a97b0"/></svg>