<svg width="929" height="1005" viewBox="0 0 929 1005" fill="none" xmlns="http://www.w3.org/2000/svg">
<path d="M173.246 378.549C173.246 378.549 171.904 630.89 173.246 641.628C177.273 665.788 193.381 707.398 256.469 744.981C350.431 800.013 445.734 856.387 445.734 856.387V728.874C445.734 728.874 358.484 681.895 358.484 680.553C358.484 680.553 281.973 638.944 281.973 547.671C281.973 441.634 281.973 441.634 281.973 441.634L173.246 378.549Z" fill="#363951"/>
<path d="M173.246 261.774V116.812C173.246 116.812 173.246 44.3313 284.657 0.0373611V210.769C284.657 210.769 339.692 166.475 417.546 194.662V316.806L308.819 259.09C308.819 259.09 253.784 230.903 173.246 261.774Z" fill="#363951"/>
<path d="M726.277 442.977C726.277 442.977 731.646 381.234 664.531 342.309C597.415 303.384 578.623 289.961 578.623 289.961V422.843C578.623 422.843 617.55 456.399 617.55 506.062C617.55 555.725 617.55 783.906 617.55 783.906C617.55 783.906 612.181 853.703 583.992 869.809C583.992 869.809 581.308 871.152 579.965 872.494C578.623 873.836 575.939 876.521 575.939 877.863C574.596 881.89 575.939 884.574 589.362 877.863C609.496 868.467 704.8 822.831 724.935 757.061C727.619 750.35 726.277 442.977 726.277 442.977Z" fill="#363951"/>
<path d="M821.581 590.623L872.588 456.399C879.3 440.292 887.354 402.709 888.696 395.998C892.723 365.126 888.696 296.672 798.762 241.64C794.735 238.956 790.708 236.271 786.681 234.929C786.681 234.929 679.296 173.186 612.181 132.919C488.689 60.4377 426.942 169.159 426.942 169.159C468.554 169.159 530.3 205.4 530.3 205.4C530.3 205.4 653.792 277.881 731.646 323.517C809.5 369.153 782.654 447.003 782.654 447.003L742.385 557.067L726.277 601.361V640.286L728.962 641.628L731.646 642.97L847.085 723.505L928.965 676.526L821.581 590.623Z" fill="#363951"/>
<path d="M439.023 201.374V412.105L210.83 284.593C210.83 284.593 138.346 251.037 72.5725 289.962C5.45713 328.887 0.0878906 401.368 0.0878906 467.137C0.0878906 534.249 0.0878906 716.794 0.0878906 716.794C0.0878906 716.794 0.087897 800.013 61.8341 833.569C123.58 867.125 311.503 978.531 311.503 978.531C311.503 978.531 383.988 1022.83 444.392 994.638C445.734 994.638 445.734 993.296 447.076 993.296C547.749 955.713 554.461 873.836 554.461 873.836V316.806C555.803 316.806 550.434 240.299 439.023 201.374ZM433.653 589.281V922.157L424.257 916.788C365.196 880.548 186.669 773.168 149.084 750.35C104.788 722.163 110.157 656.393 110.157 656.393V394.656C110.157 391.972 110.157 389.287 111.499 386.603C111.499 383.918 112.842 381.234 115.526 377.207C115.526 377.207 115.526 375.865 116.869 375.865C119.553 371.838 122.238 369.154 126.265 369.154C134.319 370.496 139.688 373.18 139.688 373.18C139.688 373.18 328.953 479.218 383.988 511.431C439.023 544.987 433.653 589.281 433.653 589.281Z" fill="#363951"/>
</svg>
