<svg width="187" height="187" viewBox="0 0 187 187" fill="none" xmlns="http://www.w3.org/2000/svg">
<circle cx="93.5" cy="93.5" r="93.5" fill="#1A222A"/>
<path d="M44.6254 79.9944C45.3768 75.117 49.5739 71.517 54.5088 71.517H119.564C129.74 71.517 137.988 79.7656 137.988 89.9409C137.988 103.508 126.99 114.506 113.423 114.506H45.1379C42.073 114.506 39.7295 111.774 40.1962 108.745L44.6254 79.9944Z" fill="#1A222A"/>
<mask id="path-3-outside-1" maskUnits="userSpaceOnUse" x="4.92896" y="55.7007" width="181" height="76" fill="black">
<rect fill="white" x="4.92896" y="55.7007" width="181" height="76"/>
<path d="M46.6644 121.731C43.89 121.499 41.2707 119.957 39.7733 117.364L21.7285 86.1091C21.1418 85.093 20.781 84.0084 20.6305 82.9136L14.3598 89.1843C12.452 91.0921 12.452 94.1852 14.3598 96.0929L39.879 121.612C41.7462 123.479 44.7489 123.519 46.6644 121.731Z"/>
<path fill-rule="evenodd" clip-rule="evenodd" d="M50.8139 116.63L49.3508 115.336C48.1008 114.23 47.15 112.753 46.688 111.029L37.3473 76.1689C36.9137 74.5508 36.9609 72.9171 37.4014 71.4195L26.9011 77.4819C24.5646 78.8309 23.764 81.8186 25.113 84.1551L43.1578 115.41C44.5068 117.746 47.4945 118.547 49.831 117.198L50.8139 116.63Z"/>
<path d="M51.9406 65.6547L44.7366 67.7017C42.1872 68.4261 40.6742 71.2049 41.3574 73.9084L50.4951 110.071C50.747 111.068 51.2624 111.916 51.9406 112.552V65.6547Z"/>
<path fill-rule="evenodd" clip-rule="evenodd" d="M132.879 123.299V104.54H118.811L120.385 103.108L120.391 103.103C124.456 99.4404 127.484 95.918 129.11 92.5391C130.736 89.2196 131.546 85.6684 131.546 81.9298C131.546 77.6285 130.339 73.709 127.883 70.3002C126.389 68.2259 124.552 66.4738 122.408 65.0324H150.429C155.816 65.0324 160.508 65.9203 164.506 67.696C168.504 69.4718 171.586 72.0244 173.752 75.354C175.917 78.6835 177 82.568 177 87.0073C177 91.4467 175.917 95.3312 173.752 98.6607C171.586 101.99 168.504 104.543 164.506 106.319C160.508 108.094 155.816 108.982 150.429 108.982H142.017V123.299H132.879ZM155.177 92.0849C153.844 93.2502 151.845 93.8329 149.18 93.8329H142.017V80.1818H149.18C151.845 80.1818 153.844 80.7922 155.177 82.013C156.51 83.1784 157.176 84.8431 157.176 87.0073C157.176 89.1715 156.51 90.8641 155.177 92.0849Z"/>
<path d="M55.8487 64.6777H75.5045V107.974H96.8839V123.299H55.8487V64.6777Z"/>
<path d="M100.425 123.299H129.341V108.067H109.684L118.013 100.492C121.956 96.9405 124.593 93.7775 125.926 91.0029C127.314 88.1728 128.008 85.1484 128.008 81.9299C128.008 78.3229 127.009 75.1321 125.01 72.3575C123.011 69.5829 120.234 67.4464 116.68 65.9481C113.127 64.4498 109.045 63.7007 104.436 63.7007C98.3835 63.7007 93.2193 64.9215 88.9435 67.3632C84.6678 69.7493 81.4193 73.0234 79.1982 77.1853L94.0245 84.5935C94.8574 82.8733 96.0513 81.5414 97.6061 80.5981C99.1609 79.6547 100.827 79.183 102.604 79.183C104.436 79.183 105.824 79.5992 106.768 80.4316C107.768 81.2085 108.268 82.3183 108.268 83.7611C108.268 84.9265 107.962 86.1196 107.351 87.3404C106.741 88.5612 105.519 90.0318 103.687 91.752L89.8508 104.54H100.425V123.299Z"/>
</mask>
<path d="M46.6644 121.731C43.89 121.499 41.2707 119.957 39.7733 117.364L21.7285 86.1091C21.1418 85.093 20.781 84.0084 20.6305 82.9136L14.3598 89.1843C12.452 91.0921 12.452 94.1852 14.3598 96.0929L39.879 121.612C41.7462 123.479 44.7489 123.519 46.6644 121.731Z" fill="white"/>
<path fill-rule="evenodd" clip-rule="evenodd" d="M50.8139 116.63L49.3508 115.336C48.1008 114.23 47.15 112.753 46.688 111.029L37.3473 76.1689C36.9137 74.5508 36.9609 72.9171 37.4014 71.4195L26.9011 77.4819C24.5646 78.8309 23.764 81.8186 25.113 84.1551L43.1578 115.41C44.5068 117.746 47.4945 118.547 49.831 117.198L50.8139 116.63Z" fill="white"/>
<path d="M51.9406 65.6547L44.7366 67.7017C42.1872 68.4261 40.6742 71.2049 41.3574 73.9084L50.4951 110.071C50.747 111.068 51.2624 111.916 51.9406 112.552V65.6547Z" fill="white"/>
<path fill-rule="evenodd" clip-rule="evenodd" d="M132.879 123.299V104.54H118.811L120.385 103.108L120.391 103.103C124.456 99.4404 127.484 95.918 129.11 92.5391C130.736 89.2196 131.546 85.6684 131.546 81.9298C131.546 77.6285 130.339 73.709 127.883 70.3002C126.389 68.2259 124.552 66.4738 122.408 65.0324H150.429C155.816 65.0324 160.508 65.9203 164.506 67.696C168.504 69.4718 171.586 72.0244 173.752 75.354C175.917 78.6835 177 82.568 177 87.0073C177 91.4467 175.917 95.3312 173.752 98.6607C171.586 101.99 168.504 104.543 164.506 106.319C160.508 108.094 155.816 108.982 150.429 108.982H142.017V123.299H132.879ZM155.177 92.0849C153.844 93.2502 151.845 93.8329 149.18 93.8329H142.017V80.1818H149.18C151.845 80.1818 153.844 80.7922 155.177 82.013C156.51 83.1784 157.176 84.8431 157.176 87.0073C157.176 89.1715 156.51 90.8641 155.177 92.0849Z" fill="white"/>
<path d="M55.8487 64.6777H75.5045V107.974H96.8839V123.299H55.8487V64.6777Z" fill="white"/>
<path d="M100.425 123.299H129.341V108.067H109.684L118.013 100.492C121.956 96.9405 124.593 93.7775 125.926 91.0029C127.314 88.1728 128.008 85.1484 128.008 81.9299C128.008 78.3229 127.009 75.1321 125.01 72.3575C123.011 69.5829 120.234 67.4464 116.68 65.9481C113.127 64.4498 109.045 63.7007 104.436 63.7007C98.3835 63.7007 93.2193 64.9215 88.9435 67.3632C84.6678 69.7493 81.4193 73.0234 79.1982 77.1853L94.0245 84.5935C94.8574 82.8733 96.0513 81.5414 97.6061 80.5981C99.1609 79.6547 100.827 79.183 102.604 79.183C104.436 79.183 105.824 79.5992 106.768 80.4316C107.768 81.2085 108.268 82.3183 108.268 83.7611C108.268 84.9265 107.962 86.1196 107.351 87.3404C106.741 88.5612 105.519 90.0318 103.687 91.752L89.8508 104.54H100.425V123.299Z" fill="white"/>
<path d="M46.6644 121.731L52.123 127.579C54.4365 125.42 55.2597 122.1 54.2228 119.11C53.1858 116.12 50.4838 114.022 47.3301 113.759L46.6644 121.731ZM39.7733 117.364L32.8451 121.364H32.8451L39.7733 117.364ZM21.7285 86.1091L28.6567 82.1091L28.6567 82.1091L21.7285 86.1091ZM20.6305 82.9136L28.5559 81.8239C28.1422 78.8145 26.0596 76.299 23.1803 75.3308C20.301 74.3626 17.1217 75.1087 14.9736 77.2567L20.6305 82.9136ZM14.3598 89.1843L20.0166 94.8411L14.3598 89.1843ZM14.3598 96.0929L8.70293 101.75H8.70293L14.3598 96.0929ZM39.879 121.612L45.5358 115.955L45.5358 115.955L39.879 121.612ZM50.8139 116.63L54.8139 123.558C57.0422 122.272 58.5157 119.992 58.7736 117.432C59.0315 114.872 58.0422 112.344 56.1153 110.639L50.8139 116.63ZM49.3508 115.336L54.6522 109.344L54.6522 109.344L49.3508 115.336ZM46.688 111.029L54.4154 108.958L54.4154 108.958L46.688 111.029ZM37.3473 76.1689L29.6199 78.2394V78.2394L37.3473 76.1689ZM37.4014 71.4195L45.0763 73.6769C45.9993 70.5387 44.9188 67.1548 42.3481 65.1322C39.7773 63.1096 36.2342 62.8558 33.4014 64.4913L37.4014 71.4195ZM26.9011 77.4819L22.9011 70.5537H22.9011L26.9011 77.4819ZM25.113 84.1551L18.1848 88.1551L25.113 84.1551ZM43.1578 115.41L50.086 111.41L43.1578 115.41ZM49.831 117.198L45.831 110.269L45.831 110.269L49.831 117.198ZM44.7366 67.7017L46.9232 75.3971L44.7366 67.7017ZM51.9406 65.6547H59.9406C59.9406 63.1465 58.7642 60.7834 56.7629 59.2715C54.7615 57.7595 52.1669 57.2738 49.7541 57.9594L51.9406 65.6547ZM41.3574 73.9084L33.6011 75.8682V75.8682L41.3574 73.9084ZM50.4951 110.071L58.2513 108.111L58.2513 108.111L50.4951 110.071ZM51.9406 112.552L46.4666 118.386C48.7924 120.568 52.1924 121.161 55.1193 119.893C58.0461 118.626 59.9406 115.741 59.9406 112.552H51.9406ZM132.879 104.54H140.879C140.879 100.122 137.297 96.5401 132.879 96.5401V104.54ZM132.879 123.299H124.879C124.879 127.718 128.461 131.299 132.879 131.299V123.299ZM118.811 104.54L113.428 98.6216C110.983 100.845 110.157 104.343 111.349 107.426C112.541 110.508 115.506 112.54 118.811 112.54V104.54ZM120.385 103.108L115.027 97.1682C115.019 97.1754 115.011 97.1826 115.003 97.1899L120.385 103.108ZM120.391 103.103L115.036 97.1595L115.033 97.1627L120.391 103.103ZM129.11 92.5391L121.926 89.0201C121.918 89.0365 121.91 89.0528 121.902 89.0693L129.11 92.5391ZM127.883 70.3002L121.392 74.9767L121.392 74.9767L127.883 70.3002ZM122.408 65.0324V57.0324C118.889 57.0324 115.783 59.3326 114.756 62.6991C113.73 66.0656 115.024 69.7076 117.945 71.6713L122.408 65.0324ZM164.506 67.696L161.259 75.0073V75.0073L164.506 67.696ZM173.752 75.354L167.045 79.7159V79.7159L173.752 75.354ZM173.752 98.6607L167.045 94.2988V94.2988L173.752 98.6607ZM164.506 106.319L161.259 99.0073L164.506 106.319ZM142.017 108.982V100.982C137.598 100.982 134.017 104.564 134.017 108.982H142.017ZM142.017 123.299V131.299C146.435 131.299 150.017 127.718 150.017 123.299H142.017ZM155.177 92.0849L160.443 98.1072C160.49 98.0667 160.535 98.0255 160.581 97.9839L155.177 92.0849ZM142.017 93.8329H134.017C134.017 98.2512 137.598 101.833 142.017 101.833V93.8329ZM142.017 80.1818V72.1818C137.598 72.1818 134.017 75.7635 134.017 80.1818H142.017ZM155.177 82.013L149.773 87.9121C149.819 87.9537 149.865 87.9948 149.911 88.0354L155.177 82.013ZM55.8487 64.6777V56.6777C51.4305 56.6777 47.8487 60.2594 47.8487 64.6777H55.8487ZM75.5045 64.6777H83.5045C83.5045 60.2594 79.9228 56.6777 75.5045 56.6777V64.6777ZM75.5045 107.974H67.5045C67.5045 112.392 71.0862 115.974 75.5045 115.974V107.974ZM96.8839 107.974H104.884C104.884 103.556 101.302 99.974 96.8839 99.974V107.974ZM96.8839 123.299V131.299C101.302 131.299 104.884 127.718 104.884 123.299H96.8839ZM55.8487 123.299H47.8487C47.8487 127.718 51.4305 131.299 55.8487 131.299V123.299ZM129.341 123.299V131.299C133.759 131.299 137.341 127.718 137.341 123.299H129.341ZM100.425 123.299H92.425C92.425 127.718 96.0067 131.299 100.425 131.299V123.299ZM129.341 108.067H137.341C137.341 103.648 133.759 100.067 129.341 100.067V108.067ZM109.684 108.067L104.301 102.148C101.856 104.372 101.03 107.87 102.222 110.952C103.414 114.035 106.379 116.067 109.684 116.067V108.067ZM118.013 100.492L112.659 94.5481C112.649 94.5565 112.64 94.5649 112.631 94.5734L118.013 100.492ZM125.926 91.0029L118.744 87.4797C118.734 87.4995 118.724 87.5193 118.715 87.5392L125.926 91.0029ZM125.01 72.3575L118.519 77.034L118.519 77.034L125.01 72.3575ZM116.68 65.9481L113.573 73.3198L113.573 73.3198L116.68 65.9481ZM88.9435 67.3632L92.8421 74.349C92.865 74.3362 92.8879 74.3233 92.9107 74.3103L88.9435 67.3632ZM79.1982 77.1853L72.1404 73.4186C71.1239 75.3233 70.9203 77.558 71.5761 79.615C72.2318 81.672 73.691 83.3767 75.6224 84.3417L79.1982 77.1853ZM94.0245 84.5935L90.4487 91.7499C92.3621 92.706 94.5787 92.856 96.6035 92.1664C98.6283 91.4768 100.293 90.0051 101.225 88.0799L94.0245 84.5935ZM97.6061 80.5981L101.756 87.4376V87.4376L97.6061 80.5981ZM106.768 80.4316L101.477 86.432C101.601 86.5413 101.729 86.6466 101.859 86.748L106.768 80.4316ZM107.351 87.3404L114.506 90.92V90.92L107.351 87.3404ZM103.687 91.752L109.117 97.6269C109.132 97.6129 109.147 97.5988 109.162 97.5846L103.687 91.752ZM89.8508 104.54L84.4207 98.6653C82.0024 100.9 81.2009 104.389 82.401 107.456C83.6011 110.522 86.5578 112.54 89.8508 112.54V104.54ZM100.425 104.54H108.425C108.425 100.122 104.843 96.5402 100.425 96.5402V104.54ZM47.3301 113.759C47.056 113.736 46.8331 113.592 46.7015 113.364L32.8451 121.364C35.7084 126.323 40.724 129.263 45.9986 129.703L47.3301 113.759ZM46.7015 113.364L28.6567 82.1091L14.8003 90.1091L32.8451 121.364L46.7015 113.364ZM28.6567 82.1091C28.5964 82.0047 28.5679 81.9109 28.5559 81.8239L12.7051 84.0032C12.9941 86.106 13.6872 88.1813 14.8003 90.1091L28.6567 82.1091ZM20.0166 94.8411L26.2874 88.5704L14.9736 77.2567L8.70292 83.5274L20.0166 94.8411ZM20.0166 90.4361C21.2331 91.6525 21.2331 93.6247 20.0166 94.8411L8.70292 83.5274C3.67096 88.5594 3.67097 96.7178 8.70293 101.75L20.0166 90.4361ZM45.5358 115.955L20.0166 90.4361L8.70293 101.75L34.2221 127.269L45.5358 115.955ZM41.2057 115.883C42.4308 114.739 44.3441 114.764 45.5358 115.955L34.2221 127.269C39.1483 132.195 47.067 132.299 52.123 127.579L41.2057 115.883ZM56.1153 110.639L54.6522 109.344L44.0494 121.327L45.5125 122.621L56.1153 110.639ZM54.6522 109.344C54.5413 109.246 54.4585 109.119 54.4154 108.958L38.9605 113.099C39.8416 116.387 41.6603 119.213 44.0494 121.327L54.6522 109.344ZM54.4154 108.958L45.0747 74.0983L29.6199 78.2394L38.9605 113.099L54.4154 108.958ZM45.0747 74.0983C45.0323 73.9401 45.0389 73.8041 45.0763 73.6769L29.7265 69.1622C28.883 72.03 28.7951 75.1614 29.6199 78.2394L45.0747 74.0983ZM30.9011 84.4101L41.4014 78.3477L33.4014 64.4913L22.9011 70.5537L30.9011 84.4101ZM32.0412 80.1551C32.9014 81.6449 32.3909 83.5499 30.9011 84.4101L22.9011 70.5537C16.7382 74.1118 14.6267 81.9922 18.1848 88.1551L32.0412 80.1551ZM50.086 111.41L32.0412 80.1551L18.1848 88.1551L36.2296 119.41L50.086 111.41ZM45.831 110.269C47.3208 109.409 49.2259 109.92 50.086 111.41L36.2296 119.41C39.7877 125.572 47.6682 127.684 53.831 124.126L45.831 110.269ZM46.8139 109.702L45.831 110.269L53.831 124.126L54.8139 123.558L46.8139 109.702ZM46.9232 75.3971L54.1272 73.3501L49.7541 57.9594L42.5501 60.0063L46.9232 75.3971ZM49.1136 71.9485C49.3996 73.0802 48.8839 74.8399 46.9232 75.3971L42.5501 60.0063C35.4905 62.0122 31.9489 69.3295 33.6011 75.8682L49.1136 71.9485ZM58.2513 108.111L49.1136 71.9485L33.6011 75.8682L42.7388 112.031L58.2513 108.111ZM57.4147 106.718C57.8515 107.128 58.1283 107.625 58.2513 108.111L42.7388 112.031C43.3656 114.512 44.6734 116.703 46.4666 118.386L57.4147 106.718ZM59.9406 112.552V65.6547H43.9406V112.552H59.9406ZM124.879 104.54V123.299H140.879V104.54H124.879ZM118.811 112.54H132.879V96.5401H118.811V112.54ZM115.003 97.1899L113.428 98.6216L124.193 110.459L125.768 109.027L115.003 97.1899ZM115.033 97.1627L115.027 97.1682L125.744 109.049L125.75 109.043L115.033 97.1627ZM121.902 89.0693C120.94 91.0686 118.804 93.7644 115.036 97.1595L125.746 109.046C130.108 105.116 134.028 100.767 136.319 96.0089L121.902 89.0693ZM123.546 81.9298C123.546 84.4753 123.004 86.8199 121.926 89.0201L136.295 96.0581C138.469 91.6194 139.546 86.8615 139.546 81.9298H123.546ZM121.392 74.9767C122.811 76.9459 123.546 79.2087 123.546 81.9298H139.546C139.546 76.0483 137.867 70.4721 134.374 65.6237L121.392 74.9767ZM117.945 71.6713C119.34 72.6092 120.478 73.7076 121.392 74.9767L134.374 65.6237C132.299 62.7442 129.764 60.3383 126.872 58.3935L117.945 71.6713ZM122.408 73.0324H150.429V57.0324H122.408V73.0324ZM150.429 73.0324C154.949 73.0324 158.491 73.7779 161.259 75.0073L167.753 60.3847C162.525 58.0627 156.682 57.0324 150.429 57.0324V73.0324ZM161.259 75.0073C163.992 76.2212 165.808 77.8134 167.045 79.7159L180.458 70.992C177.364 66.2354 173.016 62.7223 167.753 60.3847L161.259 75.0073ZM167.045 79.7159C168.269 81.5979 169 83.928 169 87.0073H185C185 81.2079 183.565 75.7691 180.458 70.992L167.045 79.7159ZM169 87.0073C169 90.0867 168.269 92.4168 167.045 94.2988L180.458 103.023C183.565 98.2455 185 92.8068 185 87.0073H169ZM167.045 94.2988C165.808 96.2013 163.992 97.7934 161.259 99.0073L167.753 113.63C173.016 111.292 177.364 107.779 180.458 103.023L167.045 94.2988ZM161.259 99.0073C158.491 100.237 154.949 100.982 150.429 100.982V116.982C156.682 116.982 162.525 115.952 167.753 113.63L161.259 99.0073ZM150.429 100.982H142.017V116.982H150.429V100.982ZM134.017 108.982V123.299H150.017V108.982H134.017ZM142.017 115.299H132.879V131.299H142.017V115.299ZM149.18 101.833C152.834 101.833 157.07 101.057 160.443 98.1072L149.911 86.0625C150.262 85.7554 150.517 85.6931 150.44 85.7155C150.338 85.7452 149.956 85.8329 149.18 85.8329V101.833ZM142.017 101.833H149.18V85.8329H142.017V101.833ZM134.017 80.1818V93.8329H150.017V80.1818H134.017ZM149.18 72.1818H142.017V88.1818H149.18V72.1818ZM160.581 76.114C157.205 73.0219 152.913 72.1818 149.18 72.1818V88.1818C149.927 88.1818 150.275 88.2703 150.342 88.2909C150.367 88.2985 150.31 88.2836 150.199 88.2227C150.085 88.16 149.934 88.0597 149.773 87.9121L160.581 76.114ZM165.176 87.0073C165.176 83.0937 163.893 79.0077 160.443 75.9907L149.911 88.0354C149.778 87.9188 149.641 87.7712 149.517 87.5962C149.394 87.4216 149.307 87.2524 149.249 87.1084C149.134 86.8217 149.176 86.7382 149.176 87.0073H165.176ZM160.581 97.9839C163.892 94.9506 165.176 90.9337 165.176 87.0073H149.176C149.176 87.2726 149.136 87.2153 149.233 86.9692C149.281 86.8469 149.353 86.7031 149.455 86.5545C149.557 86.4058 149.668 86.2819 149.773 86.1859L160.581 97.9839ZM55.8487 72.6777H75.5045V56.6777H55.8487V72.6777ZM67.5045 64.6777V107.974H83.5045V64.6777H67.5045ZM75.5045 115.974H96.8839V99.974H75.5045V115.974ZM88.8839 107.974V123.299H104.884V107.974H88.8839ZM96.8839 115.299H55.8487V131.299H96.8839V115.299ZM63.8487 123.299V64.6777H47.8487V123.299H63.8487ZM129.341 115.299H100.425V131.299H129.341V115.299ZM121.341 108.067V123.299H137.341V108.067H121.341ZM109.684 116.067H129.341V100.067H109.684V116.067ZM112.631 94.5734L104.301 102.148L115.066 113.985L123.395 106.411L112.631 94.5734ZM118.715 87.5392C118.047 88.9287 116.306 91.2626 112.659 94.5481L123.367 106.436C127.605 102.618 131.139 98.6263 133.137 94.4666L118.715 87.5392ZM120.008 81.9299C120.008 83.9536 119.582 85.7698 118.744 87.4797L133.108 94.526C135.046 90.5757 136.008 86.3433 136.008 81.9299H120.008ZM118.519 77.034C119.481 78.3695 120.008 79.9038 120.008 81.9299H136.008C136.008 76.742 134.536 71.8947 131.501 67.681L118.519 77.034ZM113.573 73.3198C115.95 74.3221 117.485 75.5983 118.519 77.034L131.501 67.681C128.537 63.5674 124.519 60.5707 119.788 58.5765L113.573 73.3198ZM104.436 71.7007C108.182 71.7007 111.174 72.3087 113.573 73.3198L119.788 58.5765C115.079 56.5909 109.908 55.7007 104.436 55.7007V71.7007ZM92.9107 74.3103C95.73 72.7002 99.4583 71.7007 104.436 71.7007V55.7007C97.3087 55.7007 90.7085 57.1428 84.9764 60.4161L92.9107 74.3103ZM86.2559 80.952C87.7262 78.197 89.8528 76.0172 92.8421 74.349L85.045 60.3774C79.4828 63.4815 75.1124 67.8497 72.1404 73.4186L86.2559 80.952ZM97.6003 77.4371L82.774 70.0289L75.6224 84.3417L90.4487 91.7499L97.6003 77.4371ZM93.4563 73.7585C90.5137 75.544 88.2933 78.0728 86.8241 81.1071L101.225 88.0799C101.422 87.6737 101.589 87.5389 101.756 87.4376L93.4563 73.7585ZM102.604 71.183C99.3277 71.183 96.2313 72.0748 93.4563 73.7585L101.756 87.4376C102.091 87.2346 102.326 87.183 102.604 87.183V71.183ZM112.059 74.4311C109.111 71.8313 105.512 71.183 102.604 71.183V87.183C102.937 87.183 102.94 87.2235 102.722 87.1582C102.477 87.0847 101.994 86.8871 101.477 86.432L112.059 74.4311ZM116.268 83.7611C116.268 80.2402 114.917 76.6327 111.678 74.1152L101.859 86.748C101.371 86.3688 100.906 85.8149 100.598 85.1314C100.305 84.4802 100.268 83.9651 100.268 83.7611H116.268ZM114.506 90.92C115.578 88.7778 116.268 86.3655 116.268 83.7611H100.268C100.268 83.702 100.272 83.6519 100.277 83.6129C100.282 83.5742 100.287 83.5514 100.289 83.546C100.291 83.5352 100.275 83.6053 100.197 83.7608L114.506 90.92ZM109.162 97.5846C111.204 95.6673 113.255 93.4205 114.506 90.92L100.197 83.7608C100.25 83.6547 100.186 83.8106 99.8235 84.2468C99.4773 84.6636 98.9567 85.2194 98.2111 85.9194L109.162 97.5846ZM95.2809 110.415L109.117 97.6269L98.2565 85.8771L84.4207 98.6653L95.2809 110.415ZM89.8508 112.54H100.425V96.5402H89.8508V112.54ZM92.425 104.54V123.299H108.425V104.54H92.425Z" fill="#1A222A" mask="url(#path-3-outside-1)"/>
<path fill-rule="evenodd" clip-rule="evenodd" d="M46.6572 121.731C43.8854 121.497 41.2692 119.955 39.7729 117.364L21.7282 86.1093C21.1415 85.0932 20.7807 84.0086 20.6302 82.9138L14.4408 89.1032C12.4882 91.0558 12.4882 94.2217 14.4408 96.1743L39.7975 121.531C41.6811 123.415 44.6937 123.481 46.6572 121.731Z" fill="white"/>
<path fill-rule="evenodd" clip-rule="evenodd" d="M50.8137 116.63L49.3506 115.336C48.1006 114.23 47.1498 112.753 46.6877 111.029L37.3471 76.1689C36.9135 74.5508 36.9607 72.9171 37.4012 71.4196L26.9009 77.4819C24.5644 78.8309 23.7638 81.8186 25.1128 84.1551L43.1576 115.41C44.5066 117.746 47.4943 118.547 49.8308 117.198L50.8137 116.63Z" fill="white"/>
<path d="M51.9404 65.6548L44.7364 67.7017C42.187 68.4261 40.674 71.2049 41.3571 73.9084L50.4948 110.071C50.7468 111.068 51.2622 111.916 51.9404 112.552V65.6548Z" fill="white"/>
<path fill-rule="evenodd" clip-rule="evenodd" d="M132.879 123.299V104.54H118.811L120.385 103.108L120.391 103.103C124.456 99.4404 127.484 95.9179 129.11 92.539C130.736 89.2196 131.546 85.6684 131.546 81.9297C131.546 77.6284 130.339 73.7089 127.883 70.3002C126.388 68.2258 124.552 66.4737 122.408 65.0323L150.429 65.0323C155.815 65.0323 160.508 65.9202 164.506 67.696C168.504 69.4717 171.586 72.0244 173.751 75.3539C175.917 78.6834 177 82.5679 177 87.0073C177 91.4467 175.917 95.3311 173.751 98.6607C171.586 101.99 168.504 104.543 164.506 106.319C160.508 108.094 155.815 108.982 150.429 108.982H142.016V123.299H132.879ZM155.177 92.0848C153.844 93.2502 151.845 93.8328 149.18 93.8328H142.016V80.1817H149.18C151.845 80.1817 153.844 80.7921 155.177 82.013C156.51 83.1783 157.176 84.8431 157.176 87.0073C157.176 89.1715 156.51 90.864 155.177 92.0848Z" fill="white"/>
<path d="M55.8486 64.6777H75.5044V107.974H96.8838V123.299H55.8486V64.6777Z" fill="white"/>
<path d="M100.425 123.299H129.341V108.067H109.684L118.013 100.492C121.956 96.9405 124.593 93.7775 125.926 91.0029C127.314 88.1728 128.008 85.1484 128.008 81.9299C128.008 78.3229 127.009 75.1321 125.01 72.3575C123.011 69.5829 120.234 67.4464 116.68 65.9481C113.126 64.4498 109.045 63.7007 104.436 63.7007C98.3834 63.7007 93.2191 64.9215 88.9434 67.3632C84.6676 69.7493 81.4192 73.0234 79.198 77.1853L94.0243 84.5935C94.8573 82.8733 96.0511 81.5414 97.6059 80.5981C99.1608 79.6547 100.827 79.183 102.604 79.183C104.436 79.183 105.824 79.5992 106.768 80.4316C107.768 81.2085 108.268 82.3183 108.268 83.7611C108.268 84.9265 107.962 86.1196 107.351 87.3404C106.741 88.5612 105.519 90.0317 103.686 91.752L89.8506 104.54H100.425V123.299Z" fill="#65D4BA"/>
</svg>
