<?xml version="1.0" encoding="utf-8"?>
<!-- Generator: Adobe Illustrator 24.0.3, SVG Export Plug-In . SVG Version: 6.00 Build 0)  -->
<svg version="1.1" id="Layer_1" xmlns="http://www.w3.org/2000/svg" xmlns:xlink="http://www.w3.org/1999/xlink" x="0px" y="0px"
	 viewBox="0 0 363 91.4" style="enable-background:new 0 0 363 91.4;" xml:space="preserve">
<style type="text/css">
	.st0{fill:#35B3D4;}
	.st1{fill:#303740;}
</style>
<polygon class="st0" points="179.3,18.3 163.2,55.3 150.2,37.4 137.9,45.9 158.6,73.6 172.4,73.6 196.5,18.3 "/>
<path class="st1" d="M304.3,33.9c-0.2-0.4-0.3-0.7-0.5-1s-0.5-0.9-0.7-1.3c-0.3-0.4-0.4-0.7-0.7-1v-0.1c-0.8-1.1-1.6-2.1-2.5-3.1
	l-0.9-1c-0.6-0.6-1.3-1.2-2-1.8c-1-0.8-2.1-1.6-3.3-2.3c-0.8-0.5-1.5-0.9-2.4-1.3c-0.8-0.4-1.6-0.7-2.5-1c-0.4-0.2-0.9-0.3-1.3-0.4
	c-0.9-0.3-1.8-0.5-2.6-0.7l-1.3-0.2h-0.1c-1.4-0.2-2.8-0.3-4.2-0.3h-0.9c-0.3,0-0.6,0-0.9,0c-2.1,0.1-4.2,0.5-6.3,1.1l-0.9,0.3
	c-0.8,0.3-1.7,0.6-2.5,1l-0.8,0.4c-0.3,0.1-0.5,0.3-0.8,0.4s-0.5,0.3-0.8,0.4l0,0c-8.4,4.9-13.7,13.8-13.8,23.6v0.3c0,0,0,0,0,0.1
	s0,0,0,0.1v27.6h13.8V45.9c0-0.3,0-0.6,0-0.9c0-0.2,0-0.4,0-0.6c0-0.3,0.1-0.7,0.1-1c0-0.1,0-0.3,0.1-0.4c0.4-2,1.3-3.8,2.5-5.5
	c0.3-0.4,0.5-0.7,0.8-1c2.6-2.9,6.3-4.5,10.2-4.5h0.7h0.5h0.3c0.2,0,0.4,0,0.5,0.1h0.4l0.4,0.1c0.4,0.1,0.7,0.2,1.1,0.3l0.5,0.2
	c0.2,0.1,0.4,0.1,0.5,0.2l0.5,0.2c1.3,0.6,2.6,1.4,3.7,2.3l0.4,0.4c0.3,0.3,0.5,0.5,0.8,0.8s0.5,0.6,0.7,0.9
	c0.2,0.3,0.2,0.3,0.3,0.4c0.1,0.1,0.2,0.3,0.3,0.5c0.1,0.2,0.2,0.3,0.3,0.5c0.6,0.9,1,2,1.3,3c0.4,1.3,0.6,2.7,0.6,4.1l0,0v27.6
	h13.8V45.9l0,0C307.1,41.8,306.1,37.7,304.3,33.9z"/>
<path class="st1" d="M61.9,45.9L61.9,45.9v27.6h13.8V45.9l0,0c0-7.6,6.1-13.8,13.8-13.8c1.2,0,2.4,0.1,3.5,0.4v-14
	c-1.1-0.1-2.3-0.2-3.5-0.2C74.3,18.3,62,30.7,61.9,45.9L61.9,45.9z"/>
<path class="st1" d="M358.7,12.8c0-4.6-3.7-8.3-8.3-8.3l0,0H338v27.6h12.4c4.6,0,8.3-3.7,8.3-8.3c0-2-0.8-4-2.1-5.5
	C358,16.8,358.8,14.8,358.7,12.8z M343.6,10h6.9c1.5,0,2.8,1.2,2.8,2.8s-1.2,2.8-2.8,2.8h-6.9V10z M350.5,26.6h-6.9v-5.5h6.9
	c1.5,0.1,2.7,1.4,2.6,3C353,25.4,351.8,26.5,350.5,26.6z"/>
<path class="st1" d="M320.9,4.6h-10.4v27.6h10.4c7.6,0,13.8-6.2,13.8-13.8S328.5,4.6,320.9,4.6z M320.9,26.6h-4.8V10h4.8
	c4.6,0,8.3,3.7,8.3,8.3C329.2,22.9,325.5,26.6,320.9,26.6L320.9,26.6L320.9,26.6z"/>
<path class="st1" d="M34.3,4.6H3.2v69H17V52.8h17.3c13.3,0,24.2-10.8,24.2-24.2S47.7,4.5,34.3,4.6L34.3,4.6z M34.3,39.1H17.1V18.4
	h17.3c5.7,0,10.4,4.6,10.4,10.4S40,39.1,34.3,39.1L34.3,39.1z"/>
<path class="st1" d="M220.8,18.4c-15.2,0-27.6,12.3-27.6,27.6c0,15.2,12.3,27.6,27.6,27.6c11.3,0,21.4-6.8,25.6-17.2H230
	c-5.7,5-14.4,4.5-19.5-1.2c-1-1.2-1.9-2.5-2.5-4h39.9c0.3-1.7,0.5-3.4,0.5-5.2C248.3,30.7,236,18.4,220.8,18.4z M208,40.8
	c2.8-7.1,10.9-10.5,17.9-7.6c3.5,1.4,6.2,4.2,7.6,7.6H208z"/>
<path class="st1" d="M124.1,32.2c6.1,0,11.5,4,13.2,9.9L149,34c-6.6-13.7-23.2-19.4-36.9-12.8S92.7,44.3,99.3,58
	c6.6,13.7,23.2,19.4,36.9,12.8c3.9-1.9,7.2-4.6,9.8-8l-9-12.1c-2.6,7.1-10.6,10.8-17.7,8.2s-10.8-10.6-8.2-17.7
	C113.1,35.7,118.3,32.1,124.1,32.2z"/>
<g>
	<path class="st0" d="M137.7,11.5h55.7c3.5,0,6.3,2.8,6.3,6.3v3.5c2.1-1.8,4.3-3.3,6.8-4.5v-0.5c0-6.5-5.3-11.7-11.7-11.7h-58.5
		c-5.5,0-10.2,3.8-11.4,9c2.5,0.1,4.9,0.5,7.2,1.2C133.2,12.8,135.3,11.5,137.7,11.5z"/>
	<path class="st0" d="M199.7,70.6v3.8c0,3.5-2.8,6.3-6.3,6.3h-55.7c-2.5,0-4.6-1.4-5.6-3.5c-2.3,0.6-4.7,1-7.2,1.1
		c1.2,5.3,5.8,9.2,11.5,9.2h58.5c6.5,0,11.7-5.3,11.7-11.7V75C204.1,73.8,201.8,72.3,199.7,70.6z"/>
</g>
</svg>
